<svg role="img" viewBox="0 0 512 512" xmlns="http://www.w3.org/2000/svg" id="Directus--Streamline-Simple-Icons" height="512" width="512">
  <desc>
    Directus Streamline Icon: https://streamlinehq.com
  </desc>
  <title>Directus</title>
  <path d="M409.3226666666667 296.7253333333333a37.12 37.12 0 0 1 -6.101333333333333 -1.9626666666666666 14.016 14.016 0 0 1 -4.330666666666667 -2.9653333333333336c1.1946666666666665 -10.410666666666666 0 -19.456 1.0026666666666666 -29.695999999999998 3.925333333333333 -39.72266666666667 28.906666666666666 -27.136 51.328 -33.64266666666666 13.973333333333333 -3.925333333333333 27.946666666666665 -11.989333333333335 31.46666666666667 -28.501333333333335a288.5973333333333 288.5973333333333 0 0 0 -51.135999999999996 -47.01866666666667c-60.8 -43.263999999999996 -140.24533333333332 -60.58666666666666 -212.43733333333333 -48.576a109.07733333333334 109.07733333333334 0 0 0 47.744 44.24533333333333s-19.562666666666665 0 -36.330666666666666 -12.522666666666666c-4.906666666666666 1.9626666666666666 -14.762666666666664 5.8453333333333335 -19.477333333333334 8.192a108.672 108.672 0 0 0 141.44 7.893333333333333c-0.21333333333333332 0.3626666666666667 -3.9466666666666663 6.079999999999999 -8.469333333333333 29.866666666666664 -10.026666666666666 50.773333333333326 -38.95466666666667 46.82666666666666 -74.752 34.048 -74.34666666666666 -26.965333333333334 -115.26399999999998 -1.984 -152.42666666666665 -53.120000000000005 -10.815999999999999 6.101333333333333 -17.493333333333332 17.493333333333332 -17.493333333333332 29.90933333333333 0 12.778666666666666 7.061333333333334 23.59466666666667 17.28 29.503999999999998 5.589333333333333 -7.4239999999999995 8.106666666666666 -9.514666666666667 17.834666666666664 -9.514666666666667 -15.061333333333332 8.533333333333333 -16.85333333333333 16 -23.33866666666667 36.650666666666666 -7.850666666666666 24.981333333333332 -4.522666666666666 50.56 -41.30133333333333 57.237333333333325 -19.477333333333334 0.9813333333333333 -19.072 14.165333333333333 -26.154666666666664 33.834666666666664 -8.853333333333332 25.578666666666667 -20.650666666666666 35.79733333333333 -43.669333333333334 59.98933333333333 9.450666666666667 11.413333333333334 19.285333333333334 12.799999999999999 29.312 8.661333333333333 20.650666666666666 -8.661333333333333 36.586666666666666 -35.41333333333333 51.519999999999996 -52.714666666666666 16.72533333333333 -19.285333333333334 56.85333333333333 -11.029333333333334 87.14666666666666 -29.90933333333333 20.842666666666666 -12.778666666666666 31.082666666666668 -30.08 17.301333333333332 -59.391999999999996a58.02666666666667 58.02666666666667 0 0 1 14.954666666666665 35.41333333333333c35.007999999999996 -4.544 81.83466666666666 38.144 124.50133333333333 45.22666666666667a76.24533333333332 76.24533333333332 0 0 1 -10.410666666666666 -17.493333333333332c-4.906666666666666 -11.818666666666667 -6.485333333333333 -22.613333333333333 -5.504 -32.06399999999999 3.925333333333333 23.402666666666665 27.52 53.48266666666667 65.49333333333333 56.256 9.642666666666667 0.7679999999999999 20.266666666666666 -0.4053333333333333 31.274666666666665 -3.754666666666666 13.184 -3.925333333333333 25.386666666666663 -9.045333333333332 39.936 -6.293333333333333 10.815999999999999 1.984 20.842666666666666 7.466666666666666 27.136 16.72533333333333 9.450666666666667 13.76 30.08 16.72533333333333 39.33866666666667 -0.19199999999999998 -20.842666666666666 -54.48533333333333 -78.29333333333332 -58.02666666666667 -102.67733333333332 -64.32z" fill="#6c4cf8" stroke-width="21.3333"></path>
</svg>